<mxfile host="app.diagrams.net" modified="2023-04-01T11:28:37.552Z" agent="Mozilla/5.0 (Windows NT 10.0; Win64; x64) AppleWebKit/537.36 (KHTML, like Gecko) Chrome/111.0.0.0 Safari/537.36 Edg/111.0.1661.54" etag="DqGTb1ldKIxIfgNl_-rt" version="21.1.2" type="github">
  <diagram name="Sayfa -1" id="RtQWd6hyeV5ZpwtvPAoD">
    <mxGraphModel dx="1377" dy="764" grid="1" gridSize="10" guides="1" tooltips="1" connect="1" arrows="1" fold="1" page="1" pageScale="1" pageWidth="827" pageHeight="1169" math="0" shadow="0">
      <root>
        <mxCell id="0" />
        <mxCell id="1" parent="0" />
        <mxCell id="ydEST9z0Syt3pwQ5Q2Zz-2" style="edgeStyle=orthogonalEdgeStyle;rounded=0;orthogonalLoop=1;jettySize=auto;html=1;" edge="1" parent="1" source="ydEST9z0Syt3pwQ5Q2Zz-1">
          <mxGeometry relative="1" as="geometry">
            <mxPoint x="400" y="240" as="targetPoint" />
          </mxGeometry>
        </mxCell>
        <mxCell id="ydEST9z0Syt3pwQ5Q2Zz-1" value="Uygula Butonu" style="rounded=0;whiteSpace=wrap;html=1;" vertex="1" parent="1">
          <mxGeometry x="320" y="40" width="160" height="80" as="geometry" />
        </mxCell>
        <mxCell id="ydEST9z0Syt3pwQ5Q2Zz-3" value="mirror açıksa instancela, mirror index gir" style="rounded=0;whiteSpace=wrap;html=1;" vertex="1" parent="1">
          <mxGeometry x="240" y="340" width="120" height="60" as="geometry" />
        </mxCell>
        <mxCell id="ydEST9z0Syt3pwQ5Q2Zz-5" style="edgeStyle=orthogonalEdgeStyle;rounded=0;orthogonalLoop=1;jettySize=auto;html=1;exitX=0;exitY=0.5;exitDx=0;exitDy=0;entryX=0.5;entryY=0;entryDx=0;entryDy=0;" edge="1" parent="1" source="ydEST9z0Syt3pwQ5Q2Zz-4" target="ydEST9z0Syt3pwQ5Q2Zz-3">
          <mxGeometry relative="1" as="geometry" />
        </mxCell>
        <mxCell id="ydEST9z0Syt3pwQ5Q2Zz-8" style="edgeStyle=orthogonalEdgeStyle;rounded=0;orthogonalLoop=1;jettySize=auto;html=1;exitX=1;exitY=0.5;exitDx=0;exitDy=0;entryX=0.5;entryY=0;entryDx=0;entryDy=0;" edge="1" parent="1" source="ydEST9z0Syt3pwQ5Q2Zz-4" target="ydEST9z0Syt3pwQ5Q2Zz-9">
          <mxGeometry relative="1" as="geometry">
            <mxPoint x="500" y="350" as="targetPoint" />
          </mxGeometry>
        </mxCell>
        <mxCell id="ydEST9z0Syt3pwQ5Q2Zz-4" value="mirror index girili" style="rhombus;whiteSpace=wrap;html=1;" vertex="1" parent="1">
          <mxGeometry x="360" y="240" width="80" height="80" as="geometry" />
        </mxCell>
        <mxCell id="ydEST9z0Syt3pwQ5Q2Zz-6" value="Hayır" style="text;html=1;align=center;verticalAlign=middle;resizable=0;points=[];autosize=1;strokeColor=none;fillColor=none;" vertex="1" parent="1">
          <mxGeometry x="290" y="250" width="50" height="30" as="geometry" />
        </mxCell>
        <mxCell id="ydEST9z0Syt3pwQ5Q2Zz-7" value="Evet" style="text;html=1;align=center;verticalAlign=middle;resizable=0;points=[];autosize=1;strokeColor=none;fillColor=none;" vertex="1" parent="1">
          <mxGeometry x="445" y="255" width="50" height="30" as="geometry" />
        </mxCell>
        <mxCell id="ydEST9z0Syt3pwQ5Q2Zz-9" value="mirror index olanı güncelle" style="whiteSpace=wrap;html=1;" vertex="1" parent="1">
          <mxGeometry x="440" y="340" width="120" height="60" as="geometry" />
        </mxCell>
      </root>
    </mxGraphModel>
  </diagram>
</mxfile>
